# xmcd CD database file
#
# Track frame offsets:
#	182
#	33725
#	49080
#	59497
#	84392
#	107690
#	127942
#	154865
#	181107
#	201495
#	230800
#
# Disc length: 3442 seconds
#
# Revision: 1
# Processed by: cddbd v1.5.1PL2 Copyright (c) Steve Scherf et al.
# Submitted via: CDex 1.51
#
DISCID=960d700b
DTITLE=Santi Vega - Isla Mujeres
DYEAR=1992
DGENRE=New Age
TTITLE0=Isla Mujeres
TTITLE1=Danza
TTITLE2=Arboretum
TTITLE3=En Barco
TTITLE4=No me acostumbrare
TTITLE5=Brujos del agua
TTITLE6=Lyle
TTITLE7=Vals
TTITLE8=Kruger Park
TTITLE9=Autorretrato
TTITLE10=Contigo
EXTD=YEAR: 1992
EXTT0=
EXTT1=
EXTT2=
EXTT3=
EXTT4=
EXTT5=
EXTT6=
EXTT7=
EXTT8=
EXTT9=
EXTT10=
PLAYORDER=
